<svg width="500" height="300" viewBox="0 0 500 300" fill="none" xmlns="http://www.w3.org/2000/svg">
<rect width="500" height="300" fill="white"/>
<rect x="186" y="51" width="128" height="128" rx="25" fill="white"/>
<circle cx="250" cy="118" r="40" fill="#6BDE85"/>
<rect x="263.148" y="120" width="40" height="16" transform="rotate(53.8418 263.148 120)" fill="#6BDE85"/>
<circle cx="250" cy="118" r="25" fill="white"/>
<circle cx="250" cy="112" r="15" fill="black"/>
<path d="M274.476 71.1696L270.854 94.3065L259.08 88.8166L274.476 71.1696Z" fill="#6BDE85"/>
<path d="M225.797 71.1697L241.193 88.8167L229.42 94.3066L225.797 71.1697Z" fill="#6BDE85"/>
<path d="M73.2887 203.19H70.3487C70.2687 203.83 70.1887 204.47 70.1087 205.11C70.0287 205.73 69.9387 206.35 69.8387 206.97H63.5387C63.7587 205.65 63.9587 204.26 64.1387 202.8C64.3387 201.34 64.4887 199.92 64.5887 198.54H54.2387V193.89H71.0387C70.9987 194.59 70.9587 195.29 70.9187 195.99C70.8787 196.69 70.8387 197.39 70.7987 198.09H73.2887V193.89H79.2887V206.91H73.2887V203.19ZM79.2887 207.81V219.27H54.3887V207.81H79.2887ZM66.8387 208.26C66.8387 210.18 65.8787 211.54 63.9587 212.34C62.0387 213.14 59.2087 213.55 55.4687 213.57C57.3487 213.59 58.9987 213.7 60.4187 213.9C61.8387 214.08 63.0187 214.38 63.9587 214.8C64.9187 215.2 65.6387 215.73 66.1187 216.39C66.5987 217.05 66.8387 217.86 66.8387 218.82C66.8387 217.86 67.0787 217.05 67.5587 216.39C68.0387 215.73 68.7487 215.19 69.6887 214.77C70.6487 214.35 71.8287 214.05 73.2287 213.87C74.6487 213.67 76.2987 213.56 78.1787 213.54C74.4187 213.52 71.5887 213.12 69.6887 212.34C67.7887 211.54 66.8387 210.18 66.8387 208.26ZM95.4493 193.89H100.669V197.76H101.959V193.89H107.179V207.21H101.959V202.86H100.669V207.21H95.4493V193.89ZM85.1293 193.89H91.7293L94.8793 207.21H89.5993L88.4293 200.61L87.2593 207.21H81.9793L85.1293 193.89ZM101.179 219.27V212.76H82.2793V208.11H107.179V219.27H101.179ZM135.925 204.21H131.905L131.725 205.23H125.425C125.545 204.55 125.655 203.93 125.755 203.37C125.875 202.81 125.975 202.27 126.055 201.75C126.135 201.21 126.205 200.66 126.265 200.1C126.325 199.54 126.375 198.92 126.415 198.24H116.875V193.89H132.925L132.865 194.82H135.925V193.89H141.925V205.23H135.925V204.21ZM132.505 200.01H135.925V199.02H132.595L132.505 200.01ZM117.025 206.07H141.925V213.3C140.385 213.52 138.875 213.71 137.395 213.87C135.915 214.01 134.415 214.13 132.895 214.23C131.375 214.33 129.805 214.4 128.185 214.44C126.565 214.48 124.845 214.5 123.025 214.5V215.46C124.845 215.46 126.565 215.44 128.185 215.4C129.825 215.36 131.415 215.3 132.955 215.22C134.495 215.12 136.005 214.99 137.485 214.83C138.985 214.67 140.515 214.48 142.075 214.26V219.27H117.025V210.81H135.925V209.88H117.025V206.07ZM162.916 193.89H168.916V202.86H171.616V207.96H168.916V219.27H162.916V193.89ZM154.366 211.47C154.626 209.25 154.836 207.07 154.996 204.93C155.156 202.79 155.236 200.66 155.236 198.54H144.766V193.89H161.416C161.416 195.51 161.406 197.07 161.386 198.57C161.366 200.05 161.326 201.51 161.266 202.95C161.206 204.37 161.116 205.78 160.996 207.18C160.876 208.58 160.716 210.01 160.516 211.47H154.366ZM144.616 214.62H147.016V204.51H153.016V214.62H161.716V219.27H144.616V214.62ZM180.907 219.27C181.187 217.49 181.437 215.76 181.657 214.08C181.897 212.4 182.107 210.72 182.287 209.04C182.467 207.36 182.617 205.66 182.737 203.94C182.857 202.22 182.937 200.42 182.977 198.54H172.657V193.89H189.307C189.267 196.19 189.197 198.4 189.097 200.52C188.997 202.62 188.867 204.69 188.707 206.73C188.547 208.77 188.337 210.82 188.077 212.88C187.837 214.94 187.547 217.07 187.207 219.27H180.907ZM190.807 193.89H196.807V202.86H199.507V207.96H196.807V219.27H190.807V193.89ZM207.553 193.89H232.453V198.39H227.083L232.453 204.87H225.553L220.003 198.12L214.453 204.87H207.553L212.923 198.39H207.553V193.89ZM207.553 205.86H216.853V202.65H223.153V205.86H232.453V210.51H207.553V205.86ZM213.553 211.41V214.62L221.053 214.59C223.013 214.57 224.993 214.49 226.993 214.35C228.993 214.21 230.863 214 232.603 213.72V219.27H207.553V211.41H213.553ZM248.613 193.89H253.833V203.76H255.123V193.89H260.343V219.27H255.123V208.86H253.833V219.27H248.613V193.89ZM246.363 198.54L247.893 219.27H242.673L241.593 198.51L240.513 219.27H235.293L236.823 198.54H235.293V193.89H247.593V198.54H246.363ZM262.884 195.09H268.494V192.99H274.794V195.09H280.404V199.74H262.884V195.09ZM281.334 193.89H287.334V202.86H290.034V207.96H287.334V219.27H281.334V193.89ZM263.484 207.66C263.484 206.38 263.684 205.29 264.084 204.39C264.484 203.47 265.044 202.72 265.764 202.14C266.484 201.56 267.344 201.14 268.344 200.88C269.344 200.6 270.444 200.46 271.644 200.46C272.844 200.46 273.944 200.6 274.944 200.88C275.944 201.14 276.804 201.56 277.524 202.14C278.244 202.72 278.804 203.47 279.204 204.39C279.604 205.29 279.804 206.38 279.804 207.66V212.37C279.804 213.65 279.604 214.75 279.204 215.67C278.804 216.57 278.244 217.31 277.524 217.89C276.804 218.47 275.944 218.89 274.944 219.15C273.944 219.43 272.844 219.57 271.644 219.57C270.444 219.57 269.344 219.43 268.344 219.15C267.344 218.89 266.484 218.47 265.764 217.89C265.044 217.31 264.484 216.57 264.084 215.67C263.684 214.75 263.484 213.65 263.484 212.37V207.66ZM271.644 202.41C271.604 203.79 271.404 204.96 271.044 205.92C270.684 206.88 270.204 207.66 269.604 208.26C269.024 208.86 268.344 209.3 267.564 209.58C266.784 209.84 265.964 209.98 265.104 210C265.964 210.02 266.784 210.17 267.564 210.45C268.344 210.73 269.024 211.17 269.604 211.77C270.204 212.37 270.684 213.15 271.044 214.11C271.404 215.05 271.604 216.21 271.644 217.59C271.684 216.21 271.884 215.05 272.244 214.11C272.604 213.15 273.074 212.37 273.654 211.77C274.254 211.17 274.934 210.73 275.694 210.45C276.474 210.17 277.304 210.02 278.184 210C277.304 209.98 276.474 209.84 275.694 209.58C274.934 209.3 274.254 208.86 273.654 208.26C273.074 207.66 272.604 206.88 272.244 205.92C271.884 204.96 271.684 203.79 271.644 202.41ZM310.125 193.89H316.125V219.27H310.125V193.89ZM294.255 198.54H291.075V193.89H308.475V198.54H305.295L308.775 219.27H302.625L299.775 199.11L296.925 219.27H290.775L294.255 198.54ZM325.821 199.35C325.821 198.53 326.001 197.77 326.361 197.07C326.741 196.35 327.281 195.74 327.981 195.24C328.701 194.72 329.581 194.32 330.621 194.04C331.661 193.74 332.861 193.59 334.221 193.59C335.561 193.59 336.751 193.74 337.791 194.04C338.851 194.32 339.731 194.72 340.431 195.24C341.151 195.74 341.691 196.35 342.051 197.07C342.431 197.77 342.621 198.53 342.621 199.35V200.31C342.621 201.13 342.431 201.9 342.051 202.62C341.691 203.32 341.151 203.93 340.431 204.45C339.731 204.95 338.851 205.35 337.791 205.65C336.751 205.93 335.561 206.07 334.221 206.07C332.861 206.07 331.661 205.93 330.621 205.65C329.581 205.35 328.701 204.95 327.981 204.45C327.281 203.93 326.741 203.32 326.361 202.62C326.001 201.9 325.821 201.13 325.821 200.31V199.35ZM343.971 193.89H349.971V197.16H352.671V202.26H349.971V205.77H343.971V193.89ZM334.221 195.12C334.181 195.96 334.001 196.68 333.681 197.28C333.381 197.86 332.961 198.34 332.421 198.72C331.881 199.1 331.241 199.38 330.501 199.56C329.761 199.74 328.961 199.84 328.101 199.86C328.961 199.88 329.761 199.98 330.501 200.16C331.241 200.32 331.881 200.59 332.421 200.97C332.961 201.35 333.381 201.83 333.681 202.41C334.001 202.99 334.181 203.7 334.221 204.54C334.241 203.7 334.411 202.99 334.731 202.41C335.051 201.81 335.481 201.33 336.021 200.97C336.561 200.59 337.201 200.31 337.941 200.13C338.681 199.95 339.481 199.85 340.341 199.83C339.481 199.81 338.681 199.72 337.941 199.56C337.201 199.38 336.561 199.1 336.021 198.72C335.481 198.34 335.051 197.86 334.731 197.28C334.411 196.68 334.241 195.96 334.221 195.12ZM347.061 206.37V207.57H350.301V211.77H337.521V207.57H340.761V206.37H347.061ZM331.971 215.34C332.871 215.34 333.721 215.28 334.521 215.16C335.341 215.04 336.181 214.84 337.041 214.56V219.27H325.971V207.48H331.971V215.34ZM350.301 215.79C350.301 216.37 350.201 216.88 350.001 217.32C349.821 217.76 349.571 218.12 349.251 218.4C348.951 218.7 348.591 218.92 348.171 219.06C347.751 219.2 347.301 219.27 346.821 219.27H341.121C340.641 219.27 340.191 219.2 339.771 219.06C339.351 218.92 338.981 218.7 338.661 218.4C338.361 218.12 338.111 217.76 337.911 217.32C337.731 216.88 337.641 216.37 337.641 215.79C337.641 215.21 337.731 214.7 337.911 214.26C338.111 213.82 338.361 213.46 338.661 213.18C338.981 212.88 339.351 212.66 339.771 212.52C340.191 212.38 340.641 212.31 341.121 212.31H346.821C347.301 212.31 347.751 212.38 348.171 212.52C348.591 212.66 348.951 212.88 349.251 213.18C349.571 213.46 349.821 213.82 350.001 214.26C350.201 214.7 350.301 215.21 350.301 215.79ZM343.971 212.85C343.951 213.21 343.871 213.57 343.731 213.93C343.611 214.27 343.371 214.58 343.011 214.86C342.671 215.12 342.191 215.34 341.571 215.52C340.951 215.68 340.141 215.77 339.141 215.79C340.141 215.81 340.951 215.9 341.571 216.06C342.191 216.24 342.671 216.46 343.011 216.72C343.371 217 343.611 217.31 343.731 217.65C343.871 218.01 343.951 218.37 343.971 218.73C343.991 218.37 344.061 218.01 344.181 217.65C344.321 217.31 344.561 217 344.901 216.72C345.261 216.46 345.751 216.24 346.371 216.06C346.991 215.9 347.801 215.81 348.801 215.79C347.801 215.77 346.991 215.68 346.371 215.52C345.751 215.34 345.261 215.12 344.901 214.86C344.561 214.58 344.321 214.27 344.181 213.93C344.061 213.57 343.991 213.21 343.971 212.85ZM363.161 193.89H369.461L378.761 202.89H371.861L366.311 197.46L360.761 202.89H353.861L363.161 193.89ZM353.861 203.73H378.761V208.08H353.861V203.73ZM378.761 208.95V219.27H353.861V208.95H359.861V210.51H372.761V208.95H378.761ZM366.311 210.96C366.311 212.4 365.411 213.41 363.611 213.99C361.811 214.57 359.111 214.88 355.511 214.92C359.111 214.96 361.811 215.26 363.611 215.82C365.411 216.38 366.311 217.38 366.311 218.82C366.311 217.38 367.211 216.38 369.011 215.82C370.811 215.24 373.501 214.93 377.081 214.89C373.501 214.85 370.811 214.55 369.011 213.99C367.211 213.41 366.311 212.4 366.311 210.96ZM400.652 193.89H406.652V219.27H400.652V193.89ZM381.752 193.89H387.752V214.62C389.932 214.62 391.962 214.56 393.842 214.44C395.742 214.3 397.552 214.06 399.272 213.72V219.27H381.752V193.89ZM409.643 193.89H425.513V198.54H415.643V214.62C416.723 214.62 417.743 214.61 418.703 214.59C419.663 214.55 420.583 214.5 421.463 214.44C422.343 214.36 423.193 214.27 424.013 214.17C424.853 214.05 425.703 213.9 426.563 213.72V219.27H409.643V193.89ZM427.643 193.89H433.643V202.86H436.343V207.96H433.643V219.27H427.643V193.89ZM441.073 219.66C440.053 219.66 439.233 219.34 438.613 218.7C437.993 218.08 437.683 217.29 437.683 216.33C437.683 215.35 437.993 214.54 438.613 213.9C439.233 213.26 440.053 212.94 441.073 212.94C442.073 212.94 442.883 213.26 443.503 213.9C444.143 214.54 444.463 215.35 444.463 216.33C444.463 217.29 444.143 218.08 443.503 218.7C442.883 219.34 442.073 219.66 441.073 219.66Z" fill="black"/>
<path d="M292.041 87.9331C292.319 86.3574 292.847 84.995 293.625 83.846C294.409 82.6641 295.32 81.6232 296.359 80.7233L300.998 76.8704C302.064 76.009 302.695 75.0203 302.892 73.9042C303.112 72.6567 302.883 71.6517 302.205 70.8891C301.56 70.1322 300.663 69.6525 299.514 69.4499C298.365 69.2474 297.303 69.4155 296.328 69.9544C295.359 70.4604 294.756 71.3864 294.518 72.7323L285.655 71.1694C285.968 69.3968 286.599 67.8326 287.549 66.477C288.531 65.1271 289.723 64.034 291.122 63.1977C292.561 62.3344 294.169 61.7549 295.948 61.4592C297.759 61.1693 299.666 61.2009 301.668 61.554C303.408 61.8608 305.028 62.3665 306.528 63.071C308.029 63.7756 309.289 64.6917 310.309 65.8192C311.334 66.9139 312.067 68.2278 312.508 69.7609C312.987 71.267 313.056 72.9884 312.714 74.9252C312.465 76.3368 311.966 77.535 311.217 78.5199C310.501 79.5106 309.665 80.4124 308.709 81.2255L302.677 86.3559C302.362 86.6051 302.085 86.9285 301.845 87.3263C301.639 87.7299 301.446 88.1528 301.266 88.595C301.12 89.043 300.989 89.4939 300.876 89.9477C300.767 90.3687 300.682 90.7597 300.618 91.1208L291.755 89.558L292.041 87.9331ZM293.608 105.827C291.934 105.532 290.68 104.769 289.848 103.539C289.01 102.342 288.729 100.956 289.007 99.3801C289.291 97.7716 290.034 96.5318 291.237 95.6608C292.44 94.7898 293.878 94.5019 295.553 94.7971C297.194 95.0865 298.431 95.8462 299.263 97.0761C300.128 98.3117 300.419 99.7338 300.136 101.342C299.858 102.918 299.104 104.122 297.874 104.955C296.671 105.826 295.249 106.116 293.608 105.827Z" fill="black"/>
</svg>
