<svg width="321" height="108" viewBox="0 0 321 108" fill="none" xmlns="http://www.w3.org/2000/svg">
<g clip-path="url(#clip0_24_23)">
<path d="M337 -19H-13C-26.8071 -19 -38 -7.80712 -38 6V106C-38 119.807 -26.8071 131 -13 131H337C350.807 131 362 119.807 362 106V6C362 -7.80712 350.807 -19 337 -19Z" fill="white"/>
<path d="M96 -19H1C-12.8071 -19 -24 -7.80712 -24 6V101C-24 114.807 -12.8071 126 1 126H96C109.807 126 121 114.807 121 101V6C121 -7.80712 109.807 -19 96 -19Z" fill="white"/>
<path d="M48.5 102.211C73.5254 102.211 93.8125 81.9238 93.8125 56.8984C93.8125 31.873 73.5254 11.5859 48.5 11.5859C23.4746 11.5859 3.1875 31.873 3.1875 56.8984C3.1875 81.9238 23.4746 102.211 48.5 102.211Z" fill="#6BDE85"/>
<path d="M90.1291 95.749L63.394 59.1641L48.76 69.8581L75.4952 106.443L90.1291 95.749Z" fill="#6BDE85"/>
<path d="M48.5 85.2187C64.1409 85.2187 76.8203 72.5393 76.8203 56.8984C76.8203 41.2575 64.1409 28.5781 48.5 28.5781C32.8591 28.5781 20.1797 41.2575 20.1797 56.8984C20.1797 72.5393 32.8591 85.2187 48.5 85.2187Z" fill="white"/>
<path d="M48.5 67.0938C57.8845 67.0938 65.4922 59.4861 65.4922 50.1016C65.4922 40.7171 57.8845 33.1094 48.5 33.1094C39.1155 33.1094 31.5078 40.7171 31.5078 50.1016C31.5078 59.4861 39.1155 67.0938 48.5 67.0938Z" fill="black"/>
<path d="M76.2266 3.84842L72.1232 30.0582L58.7863 23.8391L76.2266 3.84842Z" fill="#6BDE85"/>
<path d="M21.0829 3.84842L38.5232 23.8391L25.1862 30.0582L21.0829 3.84842Z" fill="#6BDE85"/>
<path d="M114.75 59.925H140.325C140.425 58.975 140.525 58.05 140.625 57.15C140.725 56.2 140.8 55.25 140.85 54.3H114.75V43.2H141.225V37.35H114.375V25.725H157.5C157.5 28.825 157.475 31.825 157.425 34.725C157.425 37.625 157.375 40.475 157.275 43.275C157.225 46.075 157.1 48.85 156.9 51.6C156.75 54.35 156.475 57.125 156.075 59.925H159V71.55H144.375V89.175H128.625V71.55H114.75V59.925ZM162 25.725H177V89.175H162V25.725ZM184.477 25.725H246.727V37.35H231.952L246.727 66.975H229.477L215.602 37.275L201.727 66.975H184.477L199.252 37.35H184.477V25.725ZM184.477 77.55H246.727V89.175H184.477V77.55ZM254.203 25.725H316.453V53.325H293.203V56.775H316.453V68.4H254.203V56.775H277.453V53.325H254.203V25.725ZM285.328 52.575C285.328 50.725 285.928 49.025 287.128 47.475C288.328 45.925 290.103 44.575 292.453 43.425C294.853 42.275 297.803 41.375 301.303 40.725C304.853 40.025 308.978 39.625 313.678 39.525C308.978 39.475 304.853 39.125 301.303 38.475C297.803 37.775 294.853 36.85 292.453 35.7C290.103 34.55 288.328 33.2 287.128 31.65C285.928 30.05 285.328 28.325 285.328 26.475C285.328 28.325 284.728 30.05 283.528 31.65C282.328 33.2 280.528 34.55 278.128 35.7C275.778 36.85 272.828 37.775 269.278 38.475C265.728 39.125 261.603 39.475 256.903 39.525C261.603 39.625 265.728 40.025 269.278 40.725C272.828 41.375 275.778 42.275 278.128 43.425C280.528 44.575 282.328 45.925 283.528 47.475C284.728 49.025 285.328 50.725 285.328 52.575ZM269.203 70.65V77.55L287.953 77.475C292.853 77.425 297.803 77.225 302.803 76.875C307.803 76.525 312.478 76 316.828 75.3V89.175H254.203V70.65H269.203Z" fill="#6BDE85"/>
</g>
<defs>
<clipPath id="clip0_24_23">
<rect width="321" height="108" fill="white"/>
</clipPath>
</defs>
</svg>
